<?xml version="1.0" standalone="no"?>
<!DOCTYPE svg PUBLIC "-//W3C//DTD SVG 20010904//EN"
 "http://www.w3.org/TR/2001/REC-SVG-20010904/DTD/svg10.dtd">
<svg version="1.0" xmlns="http://www.w3.org/2000/svg"
 width="857.000000pt" height="764.000000pt" viewBox="0 0 857.000000 764.000000"
 preserveAspectRatio="xMidYMid meet">

<g transform="translate(0.000000,764.000000) scale(0.100000,-0.100000)"
fill="#ffffff" stroke="none">
<path d="M3916 7541 c-13 -14 -17 -33 -15 -72 l3 -53 -49 -11 c-60 -12 -83
-46 -64 -89 15 -32 39 -40 94 -32 l43 7 7 -38 c10 -57 31 -83 65 -83 46 0 63
25 58 86 -5 57 1 64 47 64 28 0 61 27 70 57 4 17 -1 30 -19 48 -23 23 -31 25
-76 19 l-49 -6 -7 42 c-12 73 -69 104 -108 61z"/>
<path d="M4809 7451 c-23 -24 -29 -38 -29 -75 0 -66 33 -101 94 -101 65 0 99
35 99 101 0 40 -4 51 -31 76 -44 39 -93 38 -133 -1z"/>
<path d="M5547 7263 c-19 -21 -23 -58 -7 -68 18 -11 147 -169 214 -263 290
-403 485 -879 564 -1377 58 -363 57 -820 -3 -1189 -57 -354 -168 -736 -310
-1066 -63 -146 -168 -360 -177 -360 -22 0 6 119 57 242 19 45 35 96 35 114 0
39 -27 64 -68 64 -38 0 -65 -27 -88 -87 l-17 -43 -19 40 c-29 59 -70 84 -145
88 -90 6 -158 -28 -221 -112 -77 -102 -369 -389 -449 -440 -146 -94 -231 -100
-311 -23 -81 78 -111 169 -119 357 l-5 135 143 127 c133 117 559 539 676 668
431 478 619 848 547 1076 -35 113 -156 204 -270 204 -90 0 -243 -76 -352 -175
-77 -70 -202 -219 -282 -336 l-60 -88 -62 32 c-60 31 -64 32 -197 31 -151 0
-271 -22 -526 -92 -77 -21 -142 -38 -143 -36 -13 9 226 389 327 519 49 63 61
86 61 115 0 46 -15 60 -61 60 -29 0 -44 -8 -74 -37 -100 -103 -244 -319 -390
-587 l-70 -130 -50 -13 c-273 -72 -512 -89 -612 -44 -28 12 -59 31 -69 42 -19
21 -64 25 -82 7 -38 -38 32 -119 134 -157 116 -44 315 -45 517 -2 48 10 87 17
87 15 0 -1 -27 -63 -59 -136 -141 -318 -265 -695 -321 -970 -10 -49 -18 -63
-58 -99 -117 -103 -400 -296 -413 -281 -12 13 -49 189 -49 235 0 40 4 48 33
66 58 36 98 85 104 129 5 36 2 45 -25 72 -51 51 -116 38 -184 -38 -32 -36 -78
-133 -78 -166 0 -23 -281 -289 -363 -344 -162 -108 -221 -95 -234 51 l-6 57
39 0 c77 1 173 64 205 135 23 50 24 77 3 121 -56 118 -246 66 -335 -91 -67
-118 -306 -306 -506 -397 -168 -76 -405 -104 -553 -64 -414 109 -578 551 -425
1141 99 379 347 790 673 1113 142 141 115 133 282 84 359 -105 600 -90 723 46
31 36 37 49 37 88 0 83 -45 137 -152 186 -171 77 -504 32 -708 -97 l-41 -26
-142 55 c-342 131 -573 171 -729 126 -91 -26 -187 -121 -222 -220 -92 -256 85
-557 315 -537 102 9 209 73 209 126 0 55 -51 68 -110 27 -118 -79 -224 -47
-292 91 -29 60 -33 76 -32 148 1 124 54 211 153 253 57 24 180 18 286 -13 87
-25 393 -141 407 -154 4 -4 -28 -37 -72 -75 -43 -37 -119 -113 -167 -168 -310
-352 -513 -741 -594 -1138 -20 -98 -24 -144 -24 -305 0 -164 4 -202 23 -280
105 -417 499 -666 933 -590 204 35 410 134 606 290 l68 55 7 -35 c11 -49 41
-105 75 -137 116 -110 317 -33 561 213 l109 109 27 -106 c15 -59 25 -108 24
-109 -2 -1 -32 -17 -68 -36 -84 -44 -137 -97 -146 -145 -15 -79 30 -126 118
-125 127 1 228 86 244 204 7 46 8 47 88 92 77 43 220 143 303 211 l38 32 2
-106 c3 -204 57 -326 167 -385 64 -34 168 -29 270 12 156 63 350 197 547 381
l96 89 6 -77 c11 -142 70 -275 158 -357 87 -81 176 -107 281 -81 127 32 232
101 394 258 55 54 103 98 106 98 3 0 8 -18 11 -40 3 -23 17 -56 32 -76 80
-105 180 -90 314 47 l58 61 7 -36 c4 -20 21 -52 38 -71 l30 -35 -43 -73 c-113
-191 -321 -476 -480 -657 -353 -403 -843 -843 -1234 -1109 -492 -335 -838
-439 -1095 -329 -50 22 -84 17 -100 -13 -21 -39 11 -64 193 -153 464 -228 908
-359 1422 -418 168 -19 627 -16 805 6 679 82 1255 326 1794 760 606 487 1078
1255 1281 2080 215 879 122 1784 -262 2550 -442 880 -1236 1502 -2244 1757
-210 53 -239 56 -262 32z m349 -164 c939 -274 1681 -883 2089 -1714 164 -334
257 -638 316 -1035 36 -238 37 -765 2 -984 -5 -34 -26 -60 -157 -191 -208
-209 -341 -305 -422 -305 -41 0 -57 22 -73 97 -14 68 -7 83 35 83 65 0 141 46
192 113 16 23 22 45 22 85 0 48 -4 58 -34 88 -29 29 -41 34 -80 34 -97 0 -201
-83 -256 -204 -21 -48 -50 -86 -112 -149 -88 -89 -131 -112 -193 -105 -26 3
-30 8 -33 36 -4 38 26 144 69 246 33 77 37 121 12 148 -22 25 -78 24 -100 -2
-47 -54 -74 -77 -154 -130 -81 -53 -176 -98 -243 -114 -25 -6 -28 -5 -21 11
12 30 18 119 11 157 -4 20 -22 51 -40 71 -89 94 -203 -12 -200 -186 1 -53 27
-119 46 -119 17 0 6 -25 -37 -85 -48 -68 -179 -195 -201 -195 -10 0 -14 13
-14 43 0 56 35 279 60 385 26 111 26 147 -2 166 -49 34 -87 17 -123 -54 -33
-65 -269 -339 -282 -327 -1 2 33 79 76 173 139 301 221 534 296 839 224 913
142 1803 -236 2565 -104 209 -210 377 -372 588 -15 20 9 15 159 -29z m-4004
-1770 c66 -14 146 -56 154 -81 13 -43 -79 -97 -192 -113 -88 -11 -297 30 -419
84 l-40 18 41 21 c132 68 326 98 456 71z m3781 -126 c101 -76 101 -211 3 -418
-124 -259 -451 -658 -866 -1054 -260 -247 -290 -275 -296 -268 -3 3 6 52 20
109 120 499 417 1092 708 1413 197 217 338 288 431 218z m-922 -505 c21 -6 46
-19 54 -28 15 -16 13 -22 -16 -71 -52 -89 -165 -319 -218 -445 -107 -256 -184
-518 -217 -743 l-18 -123 -140 -128 c-289 -263 -470 -383 -619 -410 -50 -10
-63 -9 -95 7 -45 22 -77 69 -99 142 -23 80 -13 318 20 466 59 262 188 602 378
996 l80 165 262 74 c366 102 530 128 628 98z m876 -1475 c9 -16 18 -30 19 -32
2 -2 17 -6 34 -10 l32 -6 -48 -65 c-62 -85 -169 -190 -194 -190 -61 0 -49 170
19 256 29 36 81 74 103 74 10 0 25 -12 35 -27z m-3495 -23 c-18 -17 -38 -30
-45 -30 -6 0 3 14 21 30 18 17 38 30 45 30 6 0 -3 -14 -21 -30z m4519 -32 l-9
-33 -1 32 c-1 17 2 40 6 50 12 30 16 -9 4 -49z m1129 53 c0 -14 -60 -55 -68
-47 -3 4 7 18 23 31 32 26 45 31 45 16z m469 -168 c-238 -1091 -954 -2051
-1879 -2523 -811 -413 -1832 -480 -2742 -179 -128 42 -398 150 -398 159 0 4
27 10 60 13 152 16 420 133 645 281 157 103 232 159 460 341 632 505 1100
1020 1433 1577 45 73 57 88 85 93 71 16 134 55 208 132 l74 78 0 -145 c0 -131
2 -149 23 -187 37 -71 87 -81 175 -37 62 32 193 162 257 255 l45 67 61 5 c77
7 155 35 242 84 37 21 69 39 72 41 3 1 4 -42 2 -95 -3 -88 0 -102 20 -138 63
-110 232 -100 367 21 l49 44 12 -36 c14 -43 71 -109 111 -130 39 -20 119 -18
184 5 88 31 191 106 325 238 69 67 126 123 127 123 0 0 -8 -39 -18 -87z
m-5590 -289 c-15 -19 -69 -47 -76 -41 -5 6 67 57 81 57 4 0 3 -7 -5 -16z"/>
<path d="M7238 3640 c-28 -28 -30 -36 -25 -78 8 -75 67 -103 138 -67 84 44 48
175 -48 175 -25 0 -43 -8 -65 -30z"/>
<path d="M3143 7175 c-12 -8 -45 -53 -74 -100 -29 -47 -56 -88 -61 -91 -5 -3
-54 22 -110 57 -87 53 -105 61 -127 53 -32 -11 -52 -49 -42 -78 5 -12 51 -48
103 -81 51 -33 95 -64 96 -70 1 -5 -23 -50 -53 -98 -30 -49 -58 -99 -61 -112
-8 -31 26 -65 66 -65 30 0 51 26 155 196 10 15 22 10 107 -45 112 -72 152 -78
176 -28 20 41 1 63 -107 132 -50 31 -91 61 -91 66 0 5 27 53 60 106 33 54 60
104 60 111 0 17 -45 62 -62 62 -8 0 -23 -7 -35 -15z"/>
<path d="M2494 5547 l-27 -23 -2 -180 c-2 -130 -7 -194 -19 -234 -9 -30 -16
-67 -16 -81 0 -51 69 -79 102 -41 36 39 98 327 98 450 0 68 -2 76 -29 103 -36
35 -70 37 -107 6z"/>
<path d="M1861 1584 c-21 -15 -23 -22 -18 -75 l5 -58 -42 -6 c-51 -9 -76 -30
-76 -66 0 -46 25 -62 87 -56 l52 5 7 -36 c11 -63 30 -84 72 -80 47 4 64 34 53
96 l-8 42 40 7 c42 6 87 41 87 66 0 8 -8 25 -19 38 -18 22 -61 29 -111 17 -8
-2 -18 15 -26 47 -19 72 -55 92 -103 59z"/>
<path d="M2359 977 c-24 -18 -39 -52 -39 -87 0 -63 34 -99 95 -100 51 0 80 20
95 65 14 43 -1 97 -33 120 -26 18 -96 19 -118 2z"/>
</g>
</svg>
